<svg xmlns="http://www.w3.org/2000/svg" aria-hidden="true" overflow="hidden" style="position:absolute;width:0;height:0">
  <defs>
    <symbol id="icon-linkedin" viewBox="0 0 32 32">
        <path d="M16 0c-8.838 0-16 7.162-16 16s7.162 16 16 16 16-7.163 16-16-7.163-16-16-16zM25.988 25.981c-1.3 1.3-2.806 2.319-4.488 3.025-1.738 0.738-3.587 1.106-5.5 1.106-1.906 0-3.756-0.375-5.5-1.106-1.681-0.712-3.194-1.731-4.487-3.025-1.3-1.3-2.319-2.806-3.025-4.488-0.738-1.738-1.113-3.587-1.113-5.494s0.375-3.756 1.106-5.5c0.712-1.681 1.731-3.194 3.025-4.487 1.306-1.3 2.813-2.319 4.494-3.031 1.744-0.731 3.594-1.106 5.5-1.106s3.756 0.375 5.5 1.106c1.681 0.712 3.194 1.731 4.488 3.025 1.3 1.3 2.319 2.806 3.025 4.488 0.738 1.738 1.106 3.588 1.106 5.5 0 1.906-0.375 3.756-1.106 5.5-0.712 1.681-1.731 3.194-3.025 4.488z"></path>
        <path d="M8.406 12.713h3.119v9.981h-3.119zM9.9 8c-1.15 0-1.906 0.744-1.906 1.731 0 0.969 0.731 1.731 1.863 1.731h0.025c1.175 0 1.906-0.769 1.9-1.731-0.025-0.988-0.731-1.731-1.881-1.731zM20.044 12.619c-1.788 0-2.906 0.975-3.113 1.662v-1.569h-3.506c0.044 0.831 0 9.981 0 9.981h3.506v-5.394c0-0.306-0.012-0.606 0.075-0.819 0.238-0.6 0.756-1.225 1.688-1.225 1.219 0 1.769 0.925 1.769 2.275v5.163h3.538v-5.55c0-3.088-1.738-4.525-3.956-4.525z"></path>
    </symbol>
    <symbol id="icon-menu" viewBox="0 0 32 32">
      <path d="M29.333 24.007c0 0.733-0.595 1.327-1.327 1.327h-10.68c-0.733 0-1.327-0.594-1.327-1.327s0.594-1.327 1.327-1.327h10.68c0.733 0 1.327 0.593 1.327 1.327zM29.333 16c0 0.733-0.595 1.327-1.327 1.327h-24.013c-0.733 0-1.327-0.594-1.327-1.327s0.594-1.327 1.327-1.327h24.013c0.733 0 1.327 0.595 1.327 1.327zM28.007 9.32c0.733 0 1.327-0.594 1.327-1.327s-0.594-1.327-1.327-1.327h-16.013c-0.733 0-1.327 0.594-1.327 1.327s0.594 1.327 1.327 1.327h16.013z"></path>
    </symbol>
    <symbol id="icon-close" viewBox="0 0 24 24">
      <path stroke-linejoin="miter" stroke-linecap="round" stroke-miterlimit="4" stroke-width="2" d="M9 6l6 6 6-6M9 18l6-6 6 6"></path>
    </symbol>
    <symbol id="icon-right-arrow" viewBox="0 0 32 32">
      <path d="M16 0c-8.822 0-16 7.178-16 16s7.178 16 16 16 16-7.178 16-16-7.178-16-16-16zM21.877 17.028l-7.758 7.758c-0.284 0.284-0.656 0.426-1.028 0.426s-0.745-0.142-1.028-0.426c-0.568-0.568-0.568-1.489 0-2.057l6.729-6.729-6.729-6.729c-0.568-0.568-0.568-1.489 0-2.057s1.489-0.568 2.057 0l7.758 7.757c0.263 0.263 0.426 0.627 0.426 1.029s-0.163 0.765-0.426 1.029v0z"></path>
    </symbol>
  </defs>
</svg>